<?xml version="1.0" encoding="utf-8"?>
<!-- Generator: Adobe Illustrator 24.2.0, SVG Export Plug-In . SVG Version: 6.00 Build 0)  -->
<svg version="1.1" id="Layer_1" xmlns="http://www.w3.org/2000/svg" xmlns:xlink="http://www.w3.org/1999/xlink" x="0px" y="0px"
	 viewBox="0 0 64 64" style="enable-background:new 0 0 64 64;" xml:space="preserve">
<style type="text/css">
	.st0{fill:#FFFFFF;}
</style>
<g>
	<path class="st0" d="M20.4,20.3L17,16.9l0,24.1l0,1.1c0,0.5,0.1,1.1,0.3,1.7l26.4,9.3l6.6-2.9l0,0L20.4,20.3L20.4,20.3z"/>
	<path class="st0" d="M17.4,43.9L17.4,43.9C17.4,43.9,17.4,43.9,17.4,43.9C17.4,43.9,17.4,43.9,17.4,43.9L17.4,43.9z M50.4,50.3
		l-6.6,2.9l-26.4-9.3c0.5,1.9,1.6,4.1,2.8,5.3l8.6,8.6l19.2,0L50.4,50.3L50.4,50.3z"/>
	<g>
		<path class="st0" d="M17.1,16.9L6.9,32.4c-0.9,0.9-0.4,2.8,0.9,4.2l5.9,6l3.7,1.3c-0.2-0.6-0.3-1.2-0.3-1.7l0-1.1L17.1,16.9
			L17.1,16.9z"/>
		<path class="st0" d="M44,17.2c-0.6-0.2-1.2-0.3-1.8-0.3l-1.2,0l-24,0l33.3,33.3l2.9-6.6L44,17.2L44,17.2z"/>
	</g>
	<path class="st0" d="M44,17.2C44,17.2,44,17.2,44,17.2L44,17.2C44,17.2,44,17.2,44,17.2L44,17.2z M49.3,20.1
		c-1.2-1.2-3.4-2.3-5.3-2.8l9.3,26.4l-2.9,6.6l7.2-2.3l0-19.6L49.3,20.1L49.3,20.1z"/>
	<path class="st0" d="M42.7,13.5l-6-5.9c-1.4-1.4-3.3-1.8-4.2-0.9L17.1,16.9l24,0l1.2,0c0.5,0,1.1,0.1,1.8,0.3L42.7,13.5L42.7,13.5z
		"/>
</g>
</svg>
