<?xml version="1.0" encoding="utf-8"?>
<!-- Generator: Adobe Illustrator 24.2.0, SVG Export Plug-In . SVG Version: 6.00 Build 0)  -->
<svg version="1.1" id="svg4525" xmlns="http://www.w3.org/2000/svg" xmlns:xlink="http://www.w3.org/1999/xlink" x="0px" y="0px"
	 viewBox="0 0 2199 2500" style="enable-background:new 0 0 2199 2500;" xml:space="preserve">
<style type="text/css">
	.st0{fill:#FFFFFF;}
	.st1{opacity:0.986;fill:none;enable-background:new    ;}
</style>
<g id="g5193" transform="translate(4.988 -113.385)">
	<path id="path5113" class="st0" d="M377.8,2161.8L214.4,363.1l1760.3,0.7l-162,1796.7l-719.5,203.2L377.8,2161.8z M1680.1,2063.7
		l136.6-1540.6h-720.9l5.5,1699.2L1680.1,2063.7z M1028.6,748.9H853.5l-2.1,922l-339.8-92.7l0.7,210.8l516.3,139.4V748.9
		L1028.6,748.9z"/>
	<path id="path5159" class="st1" d="M970.9,1911.2c-22.7-6.9-134.6-37.1-248.5-68l-206.6-55.6V1684c0-101.6,0-103.7,10.3-100.2
		c5.5,2.1,81,22.7,167.5,46.7l157.2,43.3l1.4-460l1.4-460h171.6v584.9c0,464.8-1.4,584.9-6.2,584.9
		C1015.6,1922.9,993.6,1917.4,970.9,1911.2L970.9,1911.2z"/>
	<path id="path5157" class="st1" d="M512.3,1789l-0.7-210.8c0,0,216.9,61.1,339.8,92.7l2.1-921.3h175.1v1178.8L512.3,1789
		L512.3,1789z"/>
	<path id="path5117" class="st0" d="M1071.4,508.8l755.2,3.3l-102.4,1594.7L1075.8,2246L1071.4,508.8z M1641,1800.9l47.4-576
		l-350.1,39.1V956.5l373.5-1.4l15.1-210.1l-563.7,2.7l7.6,764.8l340.5-58.4l-4.8,170.3l-343.3,91.3l3.4,208.7L1641,1800.9
		L1641,1800.9z"/>
</g>
</svg>
