<?xml version="1.0" encoding="utf-8"?>
<!-- Generator: Adobe Illustrator 24.2.0, SVG Export Plug-In . SVG Version: 6.00 Build 0)  -->
<svg version="1.1" id="Layer_1" xmlns="http://www.w3.org/2000/svg" xmlns:xlink="http://www.w3.org/1999/xlink" x="0px" y="0px"
	 viewBox="0 0 2500 2500" style="enable-background:new 0 0 2500 2500;" xml:space="preserve">
<style type="text/css">
	.st0{fill:#FFFFFF;}
</style>
<g>
	<path class="st0" d="M2194.4,704c-15.5-27.5-38.8-50.2-69.8-68c-257.7-148.5-516-297.1-773.7-445.6
		c-69.8-39.9-136.6-38.8-205.8,1.8c-102.8,60.3-617,355-769.7,443.9c-63.3,36.4-93.7,92.5-93.7,165.3v897.3
		c0,35.8,7.7,67.4,22.7,94.8c15.5,28.1,39.4,51.9,71,70.4c153.4,88.9,667,383,769.6,443.9c69.2,40.6,136.6,42.3,205.8,1.8
		c257.7-149.1,516-297.1,773.7-445.6c32.2-18.5,55.5-41.8,71-70.4c15-27.5,22.7-59,22.7-94.8V800.7
		C2218.3,764.3,2210.5,731.4,2194.4,704z M1249.4,1892.4c-238.6,0-447.4-130-558.4-322.7c-54.3-94.2-85.3-204-85.3-320.4
		c0-354.9,287.5-643.1,643.1-643.1c238,0,445.6,129.4,557.2,321.6l-279.8,161.1c-55.5-95.5-158.7-159.9-276.8-159.9
		c-177.2,0-320.4,143.2-320.4,320.4c0,57.9,15.5,111.6,42.3,158.7c54.9,96.6,158.7,161.7,278,161.7c119.9,0,224.4-66.3,279.2-163.5
		l279.8,161.7C1697.4,1761.7,1488.6,1892.4,1249.4,1892.4z M2075.6,1289.9v63.9h-51.9v51.9h-63.9v-51.9h-77.5v51.9h-63.9v-51.9
		h-51.3v-63.9h51.3v-77h-51.3V1149h51.3v-51.9h63.9v51.9h77.5v-51.9h63.9v51.9h51.9v63.9h-51.9v77H2075.6z"/>
	<rect x="1882.3" y="1212.9" class="st0" width="77.5" height="77"/>
</g>
</svg>
