<?xml version="1.0" encoding="utf-8"?>
<!-- Generator: Adobe Illustrator 24.2.0, SVG Export Plug-In . SVG Version: 6.00 Build 0)  -->
<svg version="1.1" id="Layer_1" xmlns="http://www.w3.org/2000/svg" xmlns:xlink="http://www.w3.org/1999/xlink" x="0px" y="0px"
	 viewBox="0 0 64 64" style="enable-background:new 0 0 64 64;" xml:space="preserve">
<style type="text/css">
	.st0{clip-path:url(#SVGID_2_);}
	.st1{fill:#FFFFFF;}
	.st2{clip-path:url(#SVGID_4_);fill:#FFFFFF;}
	.st3{clip-path:url(#SVGID_6_);fill:#FFFFFF;}
	.st4{clip-path:url(#SVGID_8_);fill:#FFFFFF;}
	.st5{clip-path:url(#SVGID_10_);}
</style>
<g transform="matrix(.061615 0 0 .061615 -1.430818 -1.2754)">
	<g>
		<defs>
			<path id="SVGID_1_" d="M884.3,507.4L656.5,735.3l227.8,227.9H624L396.1,735.3L624,507.4H884.3z M624,116.8L200.8,540L331,670.2
				l553.3-553.4H624z"/>
		</defs>
		<use xlink:href="#SVGID_1_"  style="overflow:visible;fill:#FFFFFF;"/>
		<clipPath id="SVGID_2_">
			<use xlink:href="#SVGID_1_"  style="overflow:visible;"/>
		</clipPath>
		<g class="st0">
			<path class="st1" d="M396.1,735.3l130.1,130.2l358.1-358.1H624L396.1,735.3z"/>
		</g>
	</g>
	<g>
		<defs>
			<path id="SVGID_3_" d="M884.3,507.4L656.5,735.3l227.8,227.9H624L396.1,735.3L624,507.4H884.3z M624,116.8L200.8,540L331,670.2
				l553.3-553.4H624z"/>
		</defs>
		<use xlink:href="#SVGID_3_"  style="overflow:visible;fill:#FFFFFF;"/>
		<clipPath id="SVGID_4_">
			<use xlink:href="#SVGID_3_"  style="overflow:visible;"/>
		</clipPath>
		<path class="st2" d="M624,116.8h260.4L331,670.2L200.8,540L624,116.8z"/>
	</g>
	<g>
		<defs>
			<path id="SVGID_5_" d="M884.3,507.4L656.5,735.3l227.8,227.9H624L396.1,735.3L624,507.4H884.3z M624,116.8L200.8,540L331,670.2
				l553.3-553.4H624z"/>
		</defs>
		<use xlink:href="#SVGID_5_"  style="overflow:visible;fill:#FFFFFF;"/>
		<clipPath id="SVGID_6_">
			<use xlink:href="#SVGID_5_"  style="overflow:visible;"/>
		</clipPath>
		<path class="st3" d="M526.3,865.6l97.7,97.6h260.4L656.5,735.3L526.3,865.6z"/>
	</g>
	<g>
		<defs>
			<path id="SVGID_7_" d="M884.3,507.4L656.5,735.3l227.8,227.9H624L396.1,735.3L624,507.4H884.3z M624,116.8L200.8,540L331,670.2
				l553.3-553.4H624z"/>
		</defs>
		<use xlink:href="#SVGID_7_"  style="overflow:visible;fill:#FFFFFF;"/>
		<clipPath id="SVGID_8_">
			<use xlink:href="#SVGID_7_"  style="overflow:visible;"/>
		</clipPath>
		<path class="st4" d="M719.4,798.7l-62.9-63.3L526.3,865.6L719.4,798.7z"/>
	</g>
	<g>
		<defs>
			<path id="SVGID_9_" d="M884.3,507.4L656.5,735.3l227.8,227.9H624L396.1,735.3L624,507.4H884.3z M624,116.8L200.8,540L331,670.2
				l553.3-553.4H624z"/>
		</defs>
		<use xlink:href="#SVGID_9_"  style="overflow:visible;fill:#FFFFFF;"/>
		<clipPath id="SVGID_10_">
			<use xlink:href="#SVGID_9_"  style="overflow:visible;"/>
		</clipPath>
		<g class="st5">
			<path class="st1" d="M396.1,735.3l130.2-130.2l130.2,130.2L526.3,865.5L396.1,735.3z"/>
		</g>
	</g>
	<path class="st1" d="M884.3,507.4L656.5,735.3l227.8,227.9H624L396.1,735.3L624,507.4H884.3z M624,116.8L200.8,540L331,670.2
		l553.3-553.4H624z"/>
</g>
</svg>
