<?xml version="1.0" encoding="utf-8"?>
<!-- Generator: Adobe Illustrator 24.2.0, SVG Export Plug-In . SVG Version: 6.00 Build 0)  -->
<svg version="1.1" id="Capa_1" xmlns="http://www.w3.org/2000/svg" xmlns:xlink="http://www.w3.org/1999/xlink" x="0px" y="0px"
	 viewBox="0 0 512 512" style="enable-background:new 0 0 512 512;" xml:space="preserve">
<style type="text/css">
	.st0{fill-rule:evenodd;clip-rule:evenodd;fill:#FFFFFF;}
	.st1{fill:#FFFFFF;}
</style>
<g transform="matrix(.06928 0 0 .06928 7.367398 13.505331)">
	<circle class="st0" cx="3588.8" cy="3494.5" r="558.8"/>
	<g>
		<path class="st1" d="M3588.9,4768.8c-784.1,0-1469.6-92.6-1982.5-267.9c-332.6-113.7-614.5-264.6-815.1-436.4
			c-212.4-181.9-324.7-379-324.7-570c0-366.5,404.2-726.2,1081.2-962.3c556.7-194.1,1281.5-301,2041-301h0.1
			c745.3,0,1460.5,104.9,2014,295.5c323.3,111.3,596,255.1,788.7,415.9c209,174.4,319.5,365.2,319.5,551.8
			c0,381.1-452,767.6-1179.6,1008.7C5014.4,4674.5,4324.5,4768.8,3588.9,4768.8z M3588.8,2485.5c-721.1,0-1434.5,104.5-1957.3,286.8
			c-629.1,219.3-910.7,520.8-910.7,722.2c0,209.5,302.9,538.6,967.8,765.9c486.7,166.3,1143.9,254.2,1900.3,254.2
			c709.2,0,1370.7-89.8,1862.6-252.8c690.7-228.9,1005.3-558.2,1005.3-767.4c0-201.5-289.6-504.6-936.7-727.4
			C4992.6,2585.5,4306.7,2485.5,3588.8,2485.5L3588.8,2485.5z"/>
		<path class="st1" d="M2319.5,6274.4c-112.1,0-211.5-24.2-295.3-72.5c-317.5-183-427.2-712.8-293.4-1417.3
			c109.9-579.1,379.4-1260.4,758.8-1918.4l38.9-67.5l0.6,0c364.4-617.6,796.7-1158.8,1222.7-1529.6
			c257.9-224.4,518.7-388.8,754.3-475.4c255.5-93.9,476-94.3,637.6-1.1c330.2,190.4,439.2,775,284.5,1525.8
			c-109.7,533.2-372.7,1178-740.3,1815.5c-391.8,679.3-814.5,1226.8-1222.5,1583.4c-264.6,231.3-536.2,400.1-785.3,488.1
			C2550,6251.4,2428.8,6274.4,2319.5,6274.4z M2690.7,3026.6C2340.2,3641.8,2082,4297.9,1980.6,4832
			c-124.3,654.6-3.9,1049.1,170.6,1149.6c181.6,104.7,617.9,6.7,1147-455.7c387.2-338.4,791.6-863.7,1169.5-1519
			c354.4-614.6,607.1-1232.5,711.5-1739.8c146.8-712.7,18.7-1149.8-162.5-1254.3c-174.6-100.7-581.8-1.2-1098,448.1
			c-420.8,366.2-850.1,910.4-1208.8,1532.3L2690.7,3026.6z"/>
		<path class="st1" d="M4857.3,6277.5c-301,0-684.2-182.7-1083.4-526.2c-446.8-384.5-902.5-958.2-1283-1615.6l0,0
			c-373.2-644.5-640.7-1316.1-753.3-1891c-65.7-335.5-77.8-643.6-35.2-891c46.2-268.2,156-459.4,317.5-552.9
			c329.8-191,890.8,6.6,1464,515.5c407.3,361.6,834.6,911.4,1203.2,1548.1c392.8,678.5,656.1,1318.2,761.3,1849.9
			c68.3,344.8,78.9,664.4,30.7,924.1c-51,275-165.4,470.9-330.6,566.6C5064.1,6253.6,4966,6277.5,4857.3,6277.5z M2309.1,984.1
			c-66.2,0-120.9,12.9-162,36.7c-174.4,101-291.6,503.5-160.2,1175c107.3,548,364.4,1191.7,723.8,1812.5l0,0
			c361.4,624.1,809.3,1189.2,1228.9,1550.2c505,434.6,906.9,527.2,1081.3,426.3c181.4-105,314.4-531.9,177.9-1221.3
			c-99.9-504.5-353-1117.2-732-1771.9c-355.3-613.8-764.4-1141.3-1152-1485.4C2894.4,1133,2534.5,984.1,2309.1,984.1z"/>
	</g>
</g>
</svg>
