<?xml version="1.0" encoding="utf-8"?>
<!-- Generator: Adobe Illustrator 24.2.0, SVG Export Plug-In . SVG Version: 6.00 Build 0)  -->
<svg version="1.1" id="Layer_1" xmlns="http://www.w3.org/2000/svg" xmlns:xlink="http://www.w3.org/1999/xlink" x="0px" y="0px"
	 viewBox="0 0 448 448" style="enable-background:new 0 0 448 448;" xml:space="preserve">
<style type="text/css">
	.st0{fill:#FFFFFF;}
</style>
<g>
	<path class="st0" d="M141.8,165.3c50.2,0,82.3-13.9,82.3-23.5V101c-16.9,11.4-49.7,17.3-82.3,17.3s-65.3-5.9-82.3-17.3v40.8
		C59.5,151.3,91.5,165.3,141.8,165.3z"/>
	<path class="st0" d="M224,83c0-13-36.8-23.5-82.3-23.5S59.5,70,59.5,83s36.8,23.5,82.3,23.5S224,96,224,83z"/>
	<path class="st0" d="M141.8,224c50.2,0,82.3-13.9,82.3-23.5v-40.8c-16.9,11.4-49.7,17.3-82.3,17.3s-65.3-5.9-82.3-17.3v40.8
		C59.5,210.1,91.5,224,141.8,224z"/>
	<path class="st0" d="M247.5,359.1h15.2l-1.7-1.7l8.3-8.3l7.6,7.6v-44.6h-29.4V359.1z"/>
	<path class="st0" d="M359.1,329.8h-20.6c-2.4,0-4.5-1.4-5.5-3.6c-0.9-2.2-0.4-4.7,1.3-6.4l2.1-2.1c9.8-9.7,11.4-25,4-36.6
		c-7.5-11.6-22-16.5-34.9-11.6c-2.6,1-5.6,0-7.1-2.4c-9.6-15.7-26.7-25.3-45.1-25.3s-35.5,9.6-45.1,25.3c-1.5,2.4-4.4,3.4-7.1,2.4
		c-12.9-4.8-27.5,0-34.9,11.6c-7.5,11.6-5.8,26.9,4,36.6l2.1,2.1c1.7,1.7,2.2,4.2,1.3,6.4c-0.9,2.2-3.1,3.6-5.5,3.6h-20.6
		c-16.2,0-29.4,13.2-29.4,29.4s13.2,29.4,29.4,29.4h211.5c16.2,0,29.4-13.2,29.4-29.4S375.3,329.8,359.1,329.8z M229.9,312.1h-41.1
		v17.6h41.1V365c0,3.2-2.6,5.9-5.9,5.9h-41.1c-3.2,0-5.9-2.6-5.9-5.9v-5.9h41.1v-17.6H177v-35.3c0-3.2,2.6-5.9,5.9-5.9H224
		c3.2,0,5.9,2.6,5.9,5.9V312.1z M284.5,380.9l-10-10h-32.8c-3.2,0-5.9-2.6-5.9-5.9v-58.8c0-3.2,2.6-5.9,5.9-5.9h41.1
		c3.2,0,5.9,2.6,5.9,5.9V365c0,0.9-0.3,1.9-0.7,2.7l4.9,4.9L284.5,380.9z M347.4,365c0,3.2-2.6,5.9-5.9,5.9h-41.1
		c-3.2,0-5.9-2.6-5.9-5.9v-58.8c0-3.2,2.6-5.9,5.9-5.9h5.9v58.8h41.1V365z"/>
	<path class="st0" d="M152.7,282.5c7.1-19.7,27.9-30.7,48.2-25.5c6-8.4,13.9-15.3,23.1-20v-18.4c-16.9,11.4-49.7,17.3-82.3,17.3
		s-65.3-5.9-82.3-17.3v40.8c0,9.6,32,23.5,82.3,23.5C145.3,282.8,148.9,282.6,152.7,282.5z"/>
</g>
</svg>
